[img]http://www.khaolaknews.com/wp-content/uploads/2011/03/f1.jpg[/img]

Formula One 2011 Season

Race 3: Chinese Grand Prix, Shangha. Shanghai International Circuit

Record Source: BBC One Red Button Stream
Original Format: MPEG TS Stream
Date: Saturday 16th April 2011
Time: 04:00 to 05:00

After several requests, I have now opted for the Matroska container format (mkv) for all sessions.


Chinese Grand Prix Practice Session 3

F1 coverage of the 3rd Practice Session for the 3rd Race meeting of the 
2011 Formula One season, The Chinese Grand Prix, from the Shanghai International Circuit, Shanghai


Complete name                    : F1 2011 Chinese Practice 3.mkv
Format                           : Matroska
File size                        : 1.19 GiB
Duration                         : 1h 10mn
Overall bit rate                 : 2 421 Kbps
Writing application              : HandBrake 0.9.5
Writing library                  : libmkv 0.6.4.1

Video
ID                               : 1
Format                           : AVC
Format/Info                      : Advanced Video Codec
Format profile                   : High@L3.0
Format settings, CABAC           : Yes
Format settings, ReFrames        : 4 frames
Codec ID                         : V_MPEG4/ISO/AVC
Duration                         : 1h 10mn
Bit rate                         : 2 300 Kbps
Width                            : 544 pixels
Height                           : 576 pixels
Display aspect ratio             : 16:9
Frame rate mode                  : Variable
Frame rate                       : 25.000 fps
Color space                      : YUV
Chroma subsampling               : 4:2:0
Bit depth                        : 8 bits
Scan type                        : Progressive
Bits/(Pixel*Frame)               : 0.294
Stream size                      : 1.10 GiB (93%)
Writing library                  : x264 core 112
Encoding settings                : cabac=1 / ref=3 / deblock=1:0:0 / analyse=0x3:0x113 / me=hex / subme=7 / psy=1 / psy_rd=1.00:0.00 / mixed_ref=1 / me_range=16 / chroma_me=1 / trellis=1 / 8x8dct=1 / cqm=0 / deadzone=21,11 / fast_pskip=1 / chroma_qp_offset=-2 / threads=3 / sliced_threads=0 / nr=0 / decimate=1 / interlaced=0 / constrained_intra=0 / bframes=3 / b_pyramid=2 / b_adapt=1 / b_bias=0 / direct=1 / weightb=1 / open_gop=0 / weightp=2 / keyint=250 / keyint_min=25 / scenecut=40 / intra_refresh=0 / rc_lookahead=40 / rc=abr / mbtree=1 / bitrate=2300 / ratetol=1.0 / qcomp=0.60 / qpmin=3 / qpmax=51 / qpstep=4 / ip_ratio=1.40 / aq=1:1.00
Language                         : English
Color primaries                  : BT.601-6 525, BT.1358 525, BT.1700 NTSC, SMPTE 170M
Transfer characteristics         : BT.709-5, BT.1361
Matrix coefficients              : BT.601-6 525, BT.1358 525, BT.1700 NTSC, SMPTE 170M

Audio
ID                               : 2
Format                           : AC-3
Format/Info                      : Audio Coding 3
Mode extension                   : CM (complete main)
Codec ID                         : A_AC3
Duration                         : 1h 10mn
Bit rate mode                    : Constant
Bit rate                         : 128 Kbps
Channel(s)                       : 2 channels
Channel positions                : Front: L R
Sampling rate                    : 48.0 KHz
Bit depth                        : 16 bits
Compression mode                 : Lossy
Stream size                      : 64.2 MiB (5%)
Language                         : English



Enjoy

The BlackKnight

Qualifying will follow Later today....

DRIVERS STANDINGS AFTER RACE 2

1 	Sebastian Vettel 	Ger 	Red Bull-Renault 	50
2 	Jenson Button 		GB 	McLaren-Mercedes 	26
3 	Lewis Hamilton 		GB 	McLaren-Mercedes 	22
4 	Mark Webber 		Aus 	Red Bull-Renault 	22
5 	Fernando Alonso 	Spa 	Ferrari 		20
6 	Felipe Massa 		Brz 	Ferrari 		16
7 	Nick Heidfeld 		Ger 	Renault 		15
8 	Vitaly Petrov 		Rus 	Renault 		15
9 	Kamui Kobayashi 	Jpn 	Sauber 			6
10 	Sebastien Buemi 	Swi 	Toro Rosso-Ferrari 	4
11 	Adrian Sutil 		Ger 	Force India-Mercedes 	2
12 	Michael Schumacher 	Ger 	Mercedes GP 		2
13 	Paul Di Resta 		GB 	Force India-Mercedes 	2
14 	Jaime Alguersuari 	Spa 	Toro Rosso-Ferrari 	0
15 	Nico Rosberg 		Ger 	Mercedes GP 		0
16 	Jarno Trulli 		Ita 	Lotus-Renault 		0
17 	Jerome d'Ambrosio 	Bel 	Virgin-Cosworth 	0
18 	Heikki Kovalainen 	Fin 	Lotus-Renault 		0
19 	Timo Glock 		Ger 	Virgin-Cosworth 	0
20 	Rubens Barrichello 	Brz 	Williams-Cosworth 	0
21 	Vitantonio Liuzzi 	Ita 	Hispania-Cosworth 	0
22 	Pastor Maldonado 	Ven 	Williams-Cosworth 	0
23 	Sergio Perez 		Mex 	Sauber 			0
24 	Narain Karthikeyan 	Ind 	Hispania-Cosworth 	0


CONSTRUCTOS STANDINGS AFTER RACE 2

1 	Red Bull-Renault 	72
2 	McLaren-Mercedes 	48
3 	Ferrari 		36
4 	Renault 		30
5 	Sauber 			6
6 	Toro Rosso-Ferrari 	4
7 	Force India-Mercedes 	4
8 	Mercedes GP 		2
9 	Lotus-Renault 		0
10 	Virgin-Cosworth 	0
11 	Williams-Cosworth 	0
12 	Hispania-Cosworth